HIERARCHY
ROOT hip
{
  OFFSET 0 0 0
  CHANNELS 6 Xposition Yposition Zposition Zrotation Yrotation Xrotation
  JOINT abdomen
  {
    OFFSET 0 20.6881 -0.73152
    CHANNELS 3 Zrotation Xrotation Yrotation
    JOINT chest
    {
      OFFSET 0 11.7043 -0.48768
      CHANNELS 3 Zrotation Xrotation Yrotation
      JOINT neck
      {
        OFFSET 0 22.1894 -2.19456
        CHANNELS 3 Zrotation Xrotation Yrotation
        JOINT head
        {
          OFFSET -0.24384 7.07133 1.2192
          CHANNELS 3 Zrotation Xrotation Yrotation
          JOINT leftEye
          {
            OFFSET 4.14528 8.04674 8.04672
            CHANNELS 3 Zrotation Xrotation Yrotation
            End Site
            {
              OFFSET 1 0 0
            }
          }
          JOINT rightEye
          {
            OFFSET -3.6576 8.04674 8.04672
            CHANNELS 3 Zrotation Xrotation Yrotation
            End Site
            {
              OFFSET 1 0 0
            }
          }
        }
      }
      JOINT rCollar
      {
        OFFSET -2.68224 19.2634 -4.8768
        CHANNELS 3 Zrotation Xrotation Yrotation
        JOINT rShldr
        {
          OFFSET -8.77824 -1.95073 1.46304
          CHANNELS 3 Zrotation Xrotation Yrotation
          JOINT rForeArm
          {
            OFFSET -28.1742 -1.7115 0.48768
            CHANNELS 3 Zrotation Xrotation Yrotation
            JOINT rHand
            {
              OFFSET -22.5879 0.773209 7.07136
              CHANNELS 3 Zrotation Xrotation Yrotation
              JOINT rThumb1
              {
                OFFSET -1.2192 -0.487915 3.41376
                CHANNELS 3 Zrotation Xrotation Yrotation
                JOINT rThumb2
                {
                  OFFSET -3.37035 -0.52449 3.41376
                  CHANNELS 3 Zrotation Xrotation Yrotation
                  End Site
                  {
                    OFFSET -1.78271 -1.18214 1.43049
                  }
                }
              }
              JOINT rIndex1
              {
                OFFSET -7.75947 0.938293 5.60832
                CHANNELS 3 Zrotation Xrotation Yrotation
                JOINT rIndex2
                {
                  OFFSET -2.54057 -0.884171 1.56538
                  CHANNELS 3 Zrotation Xrotation Yrotation
                  End Site
                  {
                    OFFSET -1.62519 -0.234802 1.16502
                  }
                }
              }
              JOINT rMid1
              {
                OFFSET -8.24714 1.18213 3.41376
                CHANNELS 3 Zrotation Xrotation Yrotation
                JOINT rMid2
                {
                  OFFSET -3.10165 -0.590103 1.0647
                  CHANNELS 3 Zrotation Xrotation Yrotation
                  End Site
                  {
                    OFFSET -2.48547 -0.328903 0.83742
                  }
                }
              }
              JOINT rRing1
              {
                OFFSET -8.82822 0.546677 1.51678
                CHANNELS 3 Zrotation Xrotation Yrotation
                JOINT rRing2
                {
                  OFFSET -2.60934 -0.819778 -0.0198488
                  CHANNELS 3 Zrotation Xrotation Yrotation
                  End Site
                  {
                    OFFSET -2.33842 -0.294052 0.168128
                  }
                }
              }
              JOINT rPinky1
              {
                OFFSET -8.27202 -0.0477905 -0.4584
                CHANNELS 3 Zrotation Xrotation Yrotation
                JOINT rPinky2
                {
                  OFFSET -1.82734 -0.647385 -0.700984
                  CHANNELS 3 Zrotation Xrotation Yrotation
                  End Site
                  {
                    OFFSET -1.69225 -0.51767 -0.607171
                  }
                }
              }
            }
          }
        }
      }
      JOINT lCollar
      {
        OFFSET 2.68224 19.2634 -4.8768
        CHANNELS 3 Zrotation Xrotation Yrotation
        JOINT lShldr
        {
          OFFSET 8.77824 -1.95073 1.46304
          CHANNELS 3 Zrotation Xrotation Yrotation
          JOINT lForeArm
          {
            OFFSET 28.1742 -1.7115 0.48768
            CHANNELS 3 Zrotation Xrotation Yrotation
            JOINT lHand
            {
              OFFSET 22.5879 0.773209 7.07136
              CHANNELS 3 Zrotation Xrotation Yrotation
              JOINT lThumb1
              {
                OFFSET 1.2192 -0.487915 3.41376
                CHANNELS 3 Zrotation Xrotation Yrotation
                JOINT lThumb2
                {
                  OFFSET 3.37035 -0.52449 3.41376
                  CHANNELS 3 Zrotation Xrotation Yrotation
                  End Site
                  {
                    OFFSET 1.78271 -1.18214 1.43049
                  }
                }
              }
              JOINT lIndex1
              {
                OFFSET 7.75947 0.938293 5.60832
                CHANNELS 3 Zrotation Xrotation Yrotation
                JOINT lIndex2
                {
                  OFFSET 2.54057 -0.884171 1.56538
                  CHANNELS 3 Zrotation Xrotation Yrotation
                  End Site
                  {
                    OFFSET 1.62519 -0.234802 1.16502
                  }
                }
              }
              JOINT lMid1
              {
                OFFSET 8.24714 1.18213 3.41376
                CHANNELS 3 Zrotation Xrotation Yrotation
                JOINT lMid2
                {
                  OFFSET 3.10165 -0.590103 1.0647
                  CHANNELS 3 Zrotation Xrotation Yrotation
                  End Site
                  {
                    OFFSET 2.48547 -0.328903 0.83742
                  }
                }
              }
              JOINT lRing1
              {
                OFFSET 8.82822 0.546677 1.51678
                CHANNELS 3 Zrotation Xrotation Yrotation
                JOINT lRing2
                {
                  OFFSET 2.60934 -0.819778 -0.0198488
                  CHANNELS 3 Zrotation Xrotation Yrotation
                  End Site
                  {
                    OFFSET 2.33842 -0.294052 0.168128
                  }
                }
              }
              JOINT lPinky1
              {
                OFFSET 8.27202 -0.0477905 -0.4584
                CHANNELS 3 Zrotation Xrotation Yrotation
                JOINT lPinky2
                {
                  OFFSET 1.82734 -0.647385 -0.700984
                  CHANNELS 3 Zrotation Xrotation Yrotation
                  End Site
                  {
                    OFFSET 1.69225 -0.51767 -0.607171
                  }
                }
              }
            }
          }
        }
      }
    }
  }
  JOINT rButtock
  {
    OFFSET -8.77824 4.35084 1.2192
    CHANNELS 3 Zrotation Xrotation Yrotation
    JOINT rThigh
    {
      OFFSET 0 -1.70687 -2.19456
      CHANNELS 3 Zrotation Xrotation Yrotation
      JOINT rShin
      {
        OFFSET 0 -36.8199 0.73152
        CHANNELS 3 Zrotation Xrotation Yrotation
        JOINT rFoot
        {
          OFFSET 0.73152 -45.1104 -5.12064
          CHANNELS 3 Zrotation Xrotation Yrotation
          End Site
          {
            OFFSET -1.1221 -3.69964 12.103
          }
        }
      }
    }
  }
  JOINT lButtock
  {
    OFFSET 8.77824 4.35084 1.2192
    CHANNELS 3 Zrotation Xrotation Yrotation
    JOINT lThigh
    {
      OFFSET 0 -1.70687 -2.19456
      CHANNELS 3 Zrotation Xrotation Yrotation
      JOINT lShin
      {
        OFFSET 0 -36.8199 0.73152
        CHANNELS 3 Zrotation Xrotation Yrotation
        JOINT lFoot
        {
          OFFSET -0.73152 -45.1104 -5.12064
          CHANNELS 3 Zrotation Xrotation Yrotation
          End Site
          {
            OFFSET 1.1221 -3.69964 12.103
          }
        }
      }
    }
  }
}
MOTION
Frames:	4
Frame Time:	0.03333
-0.026100000438150063 60.929802151555116 0.008999999863581633 -9.13809871673584 -27.194198608398438 6.4728007316589355 4.073540210723877 9.70125961303711 9.325611114501953 1.45579993724823 -7.4882893562316895 2.7478299140930176 -8.541159629821777 15.058999061584473 -10.03600025177002 11.064098358154297 -17.63909912109375 -17.73619842529297 -0.0 0.0 -0.0 -0.0 0.0 -0.0 1.4743099048444147e-13 7.617150454223426e-14 4.575840032404466e-13 70.86849975585938 40.12739944458008 -0.09810525923967361 -17.08030128479004 -9.731319427490234 31.98829460144043 -0.1115489974617958 9.481730461120605 1.3449898958206177 -1.338929966898661e-09 1.0883099976766175e-09 -4.3638198610196355e-10 -2.314330060926295e-09 1.8758898878701302e-09 -7.421149805786342e-10 -1.338929966898661e-09 1.0883199896838391e-09 -4.363989725142403e-10 7.730909824371338 5.474879741668701 0.4173140823841095 -1.338929966898661e-09 1.0883199896838391e-09 -4.363879813062965e-10 2.9055399894714355 0.9651829600334167 0.10290199518203735 -1.3389198638691369e-09 1.0883199896838391e-09 -4.363860106604278e-10 10.27859878540039 0.73180091381073 0.025912316516041756 -1.338929966898661e-09 1.0883199896838391e-09 -4.3638501145970565e-10 2.221669912338257 -0.733487069606781 -0.208919957280159 1.47263006910342e-13 7.617090145477581e-14 4.574319980958641e-13 -73.91209411621094 16.703296661376953 -6.323990821838379 12.34269905090332 -5.688419818878174 -22.273298263549805 0.5227079391479492 20.10219955444336 -2.9484097957611084 -2.4959401212498733e-09 -3.3528499976398507e-09 -1.7747200375950456e-09 -4.33543956290805e-09 -5.763409749448556e-09 -3.02285996234275e-09 -2.4959401212498733e-09 -3.352840005632629e-09 -1.7747099345655215e-09 -7.730909824371338 5.474879741668701 -0.4173140823841095 -2.49594989121249e-09 -3.3528499976398507e-09 -1.7747200375950456e-09 -2.9055399894714355 0.9651829600334167 -0.10290199518203735 -2.49594989121249e-09 -3.352840005632629e-09 -1.7747200375950456e-09 -10.27859878540039 0.73180091381073 -0.025912316516041756 -2.4959401212498733e-09 -3.352840005632629e-09 -1.7747299185799648e-09 -2.221669912338257 -0.733487069606781 0.208919957280159 -2.0321699480147914e-16 0.0 -3.8825099822884138e-19 -10.926899909973145 9.236149787902832 -4.537350177764893 -0.026542101055383682 35.02739715576172 1.9815400838851929 -12.555599212646484 -20.20600128173828 -31.218494415283203 2.0321699480147914e-16 0.0 3.8825099822884138e-19 58.274497985839844 -49.955902099609375 56.36759948730469 3.156590461730957 74.80760192871094 -3.330580234527588 0.925230860710144 -8.20022201538086 1.9215397834777832
-0.04639999966724901 60.93069690633639 0.018999999619365302 -9.132698059082031 -27.229501724243164 6.477998733520508 4.072189807891846 9.71488094329834 9.369659423828125 1.39847993850708 -7.4880690574646 2.7531001567840576 -8.499269485473633 14.999199867248535 -10.035600662231445 11.06719970703125 -17.597999572753906 -17.732898712158203 -0.0 0.0 -0.0 -0.0 0.0 -0.0 1.6091599895021874e-13 1.4004299293563643e-13 -4.9591298949269724e-14 70.91619873046875 40.037906646728516 -0.11408461630344391 -17.065998077392578 -9.716408729553223 31.956796646118164 -0.11210300028324127 9.5049409866333 1.348349928855896 -1.3961098943582329e-10 4.835539746395057e-10 -5.484799836530385e-10 -2.443190094680858e-10 8.372449955551531e-10 -9.465829231558587e-10 -1.3961098943582329e-10 4.835580269535455e-10 -5.48500023178633e-10 7.730909824371338 5.474879741668701 0.4173140823841095 -1.3961400091577758e-10 4.835569722416722e-10 -5.48488976459538e-10 2.9055399894714355 0.9651829600334167 0.10290199518203735 -1.3960199662932382e-10 4.835569722416722e-10 -5.484869780580937e-10 10.27859878540039 0.73180091381073 0.025912316516041756 -1.3961500011649974e-10 4.835590261542677e-10 -5.484879772588158e-10 2.221669912338257 -0.733487069606781 -0.208919957280159 1.6075897937058853e-13 1.4004399582264598e-13 -4.975489828083421e-14 -73.82539367675781 16.721601486206055 -6.381840229034424 12.344200134277344 -5.689520835876465 -22.27619743347168 0.5217520594596863 20.084800720214844 -2.9456300735473633 1.1377599973272368e-09 -2.4821200650393394e-10 -8.130809914241865e-10 1.954399975190313e-09 -4.610340165189797e-10 -1.4252400371006502e-09 1.1377599973272368e-09 -2.48200016095268e-10 -8.130739970191314e-10 -7.730909824371338 5.474879741668701 -0.4173140823841095 1.1377500053200151e-09 -2.482129779490805e-10 -8.130929263217013e-10 -2.9055399894714355 0.9651829600334167 -0.10290199518203735 1.1377500053200151e-09 -2.4819798993824804e-10 -8.13083989026353e-10 -10.27859878540039 0.73180091381073 -0.025912316516041756 1.1377599973272368e-09 -2.481989891389702e-10 -8.130929263217013e-10 -2.221669912338257 -0.733487069606781 0.208919957280159 -2.0321699480147914e-16 0.0 -3.8825099822884138e-19 -10.936300277709961 9.21946907043457 -4.5447001457214355 -0.027219800278544426 35.05510330200195 1.9815698862075806 -12.564800262451172 -20.245101928710938 -31.195695877075195 2.0321699480147914e-16 0.0 3.8825099822884138e-19 58.285396575927734 -49.9390983581543 56.36199951171875 3.162490129470825 74.82039642333984 -3.339010238647461 0.9314430356025696 -8.19822883605957 1.9488399028778076
-0.07080000003852661 60.92959724588002 0.029999999267351002 -9.113300323486328 -27.26280403137207 6.479599952697754 4.039289951324463 9.755749702453613 9.444839477539062 1.3314999341964722 -7.46571159362793 2.7651801109313965 -8.458881378173828 14.864198684692383 -10.067299842834473 11.0129976272583 -17.52760124206543 -17.794099807739258 -0.0 0.0 -0.0 -0.0 0.0 -0.0 1.2173699819473943e-13 2.534270062142137e-14 -1.007999998574316e-12 70.93499755859375 39.938297271728516 -0.10004729777574539 -17.06329917907715 -9.713760375976562 31.950902938842773 -0.11220300197601318 9.509119987487793 1.348949909210205 1.5166800038102224e-09 -9.406788681332046e-10 -3.7278499731563386e-10 2.616549865663842e-09 -1.6178000050715013e-09 -6.56694976175487e-10 1.5166800038102224e-09 -9.406749823526184e-10 -3.7280500908565273e-10 7.730909824371338 5.474879741668701 0.4173140823841095 1.5166699007806983e-09 -9.406769807540627e-10 -3.7278696796150257e-10 2.9055399894714355 0.9651829600334167 0.10290199518203735 1.516689995817444e-09 -9.406779799547849e-10 -3.7279299092141116e-10 10.27859878540039 0.73180091381073 0.025912316516041756 1.5166800038102224e-09 -9.406779799547849e-10 -3.7279299092141116e-10 2.221669912338257 -0.733487069606781 -0.208919957280159 1.2165099385740702e-13 2.5346900210773855e-14 -1.0082199831951133e-12 -73.70069122314453 16.758501052856445 -6.530869483947754 12.324199676513672 -5.677720069885254 -22.238697052001953 0.5203229784965515 20.058700561523438 -2.941460132598877 7.273010194097651e-09 4.348209792226498e-09 -1.1678100153567073e-10 1.2557499928789184e-08 7.365440257700584e-09 -3.2831298790725327e-10 7.273010194097651e-09 4.348220006278325e-09 -1.1677200872917126e-10 -7.730909824371338 5.474879741668701 -0.4173140823841095 7.272999535956615e-09 4.348199578174672e-09 -1.1679700262501314e-10 -2.9055399894714355 0.9651829600334167 -0.10290199518203735 7.272999535956615e-09 4.348220006278325e-09 -1.167820007363929e-10 -10.27859878540039 0.73180091381073 -0.025912316516041756 7.273010194097651e-09 4.348220006278325e-09 -1.1678899514144803e-10 -2.221669912338257 -0.733487069606781 0.208919957280159 -2.0321699480147914e-16 0.0 -3.8825099822884138e-19 -10.97659969329834 9.175081253051758 -4.5399699211120605 -0.027699800208210945 35.10700607299805 1.982450246810913 -12.584598541259766 -20.364099502563477 -31.10919761657715 2.0321699480147914e-16 0.0 3.8825099822884138e-19 58.263893127441406 -49.92289733886719 56.351600646972656 3.167069911956787 74.83111572265625 -3.3454902172088623 0.9427728652954102 -8.179441452026367 1.9953999519348145
-0.09259999952281028 60.9301026798786 0.040999998915336705 -9.130599975585938 -27.289297103881836 6.476500511169434 4.0392303466796875 9.795409202575684 9.482589721679688 1.2830898761749268 -7.45120906829834 2.7689998149871826 -8.428850173950195 14.787602424621582 -10.098100662231445 10.93649959564209 -17.510099411010742 -17.858699798583984 -0.0 0.0 -0.0 -0.0 0.0 -0.0 1.2427999439030418e-14 -1.2777699362996608e-13 -9.380229882768876e-13 70.93809509277344 39.864898681640625 -0.09448421746492386 -17.06410026550293 -9.714640617370605 31.95279884338379 -0.11231700330972672 9.513911247253418 1.3496400117874146 1.7669298246758558e-09 -1.8962098558006346e-09 2.7398300295189415e-10 3.0546498663852617e-09 -3.2735598676225663e-09 4.5977396889718136e-10 1.7669400387276823e-09 -1.8962098558006346e-09 2.7396598878404177e-10 7.730909824371338 5.474879741668701 0.4173140823841095 1.7669298246758558e-09 -1.8962098558006346e-09 2.739839743970407e-10 2.9055399894714355 0.9651829600334167 0.10290199518203735 1.7669400387276823e-09 -1.8962098558006346e-09 2.73976008546839e-10 10.27859878540039 0.73180091381073 0.025912316516041756 1.7669298246758558e-09 -1.8962098558006346e-09 2.7398000534972766e-10 2.221669912338257 -0.733487069606781 -0.208919957280159 1.2377799184378445e-14 -1.2777299563445504e-13 -9.383030376980406e-13 -73.61439514160156 16.782400131225586 -6.644709587097168 12.304699897766113 -5.664860248565674 -22.201200485229492 0.520548939704895 20.06279945373535 -2.94212007522583 7.105279031804912e-09 4.488309723882367e-09 -1.3494698414273643e-10 1.2266699656038327e-08 7.611089536396776e-09 -3.562050099326086e-10 7.105279031804912e-09 4.488319937934193e-09 -1.349369921355148e-10 -7.730909824371338 5.474879741668701 -0.4173140823841095 7.105269705931505e-09 4.48829995391975e-09 -1.34959002306978e-10 -2.9055399894714355 0.9651829600334167 -0.10290199518203735 7.105279031804912e-09 4.488319937934193e-09 -1.3494599881980207e-10 -10.27859878540039 0.73180091381073 -0.025912316516041756 7.105279031804912e-09 4.488319937934193e-09 -1.3495199402413505e-10 -2.221669912338257 -0.733487069606781 0.208919957280159 -2.0321699480147914e-16 0.0 -3.8825099822884138e-19 -10.982799530029297 9.159008026123047 -4.562830448150635 -0.02848690189421177 35.13759994506836 1.9832699298858643 -12.587800025939941 -20.381397247314453 -31.09630012512207 2.0321699480147914e-16 0.0 3.8825099822884138e-19 58.25739669799805 -49.92850112915039 56.32069778442383 3.17095947265625 74.84219360351562 -3.352139949798584 0.9540560245513916 -8.161770820617676 2.0414998531341553
